<svg xmlns="http://www.w3.org/2000/svg" width="26" height="26" viewBox="0 0 26 26"><defs><linearGradient id="dm7va" x1="13" x2="13" y1="26" y2="0" gradientUnits="userSpaceOnUse"><stop offset="0" stop-color="#f26522"/><stop offset=".99" stop-color="#fa0891"/><stop offset="1" stop-color="#fa0891"/></linearGradient><clipPath id="dm7vb"><path fill="#fff" d="M13 0c7.18 0 13 5.82 13 13s-5.82 13-13 13S0 20.18 0 13 5.82 0 13 0z"/></clipPath></defs><g><g><path fill="url(#dm7va)" d="M13 0c7.18 0 13 5.82 13 13s-5.82 13-13 13S0 20.18 0 13 5.82 0 13 0z"/><path fill="none" stroke="#2174fd" stroke-miterlimit="20" stroke-width="2" d="M13 0c7.18 0 13 5.82 13 13s-5.82 13-13 13S0 20.18 0 13 5.82 0 13 0z" clip-path="url(&quot;#dm7vb&quot;)"/></g></g></svg>